<svg version="1.1" id="Layer_1" xmlns="http://www.w3.org/2000/svg" xmlns:xlink="http://www.w3.org/1999/xlink" x="0px" y="0px"
	 width="100%" viewBox="0 0 448 448" enable-background="new 0 0 448 448" xml:space="preserve">
<path fill="#000000" opacity="1.000000" stroke="none" 
	d="
M143.000000,32.815407 
	C224.816574,32.753498 306.133179,32.710968 387.449646,32.569805 
	C391.326965,32.563076 392.523560,33.665596 392.508484,37.715767 
	C392.340271,82.872719 392.353088,128.030502 392.398590,173.187973 
	C392.409821,184.347549 392.545013,184.347412 381.421448,184.335663 
	C371.663055,184.325348 371.663788,184.325348 371.664856,174.593704 
	C371.669098,136.101273 371.593140,97.608467 371.778442,59.116913 
	C371.801422,54.342407 370.198273,53.275448 365.717712,53.282879 
	C287.899963,53.412014 210.081924,53.391323 132.263962,53.396194 
	C125.090981,53.396641 125.251366,53.373940 125.263321,60.474087 
	C125.332916,101.799156 125.402199,143.124710 125.226509,184.449051 
	C125.206169,189.233856 126.453674,190.947601 131.316422,190.817459 
	C142.306931,190.523285 153.310043,190.593857 164.306641,190.684677 
	C168.555466,190.719772 170.833847,188.942368 172.497910,184.960526 
	C192.514740,137.063431 227.922638,106.870651 278.180634,94.314323 
	C294.752716,90.174011 311.731140,89.796410 328.734558,91.517845 
	C333.689575,92.019508 338.660797,92.363342 343.626251,92.759178 
	C347.728119,93.086166 349.966553,95.050140 349.875916,99.400635 
	C349.810028,102.561996 350.031372,105.728470 350.082001,108.893349 
	C350.140381,112.541924 349.105499,114.417809 344.723145,113.530708 
	C331.101685,110.773399 317.250946,110.369781 303.449615,111.232651 
	C272.911682,113.141922 246.391220,124.635658 224.055313,145.654251 
	C210.929184,158.006226 200.485382,172.270340 192.856155,188.830551 
	C195.093475,190.915680 197.671738,189.715561 199.996811,189.694321 
	C206.028152,189.639221 206.882889,190.359192 207.060272,196.484833 
	C207.103653,197.983368 207.079880,199.484039 207.077057,200.983704 
	C207.061386,209.327972 205.410782,210.762344 196.895874,209.821594 
	C195.903793,209.711990 194.920349,209.500641 193.926392,209.435104 
	C185.423981,208.874390 184.193466,209.961258 183.350342,218.539856 
	C182.652512,225.640015 181.210602,232.640717 181.308334,239.849426 
	C182.203629,305.895966 229.644165,361.797211 293.733368,371.420898 
	C310.282135,373.905884 326.893616,373.111389 343.396515,370.341705 
	C349.324005,369.346893 350.078949,369.971100 350.181091,376.016937 
	C350.220459,378.349121 350.208771,380.682709 350.183746,383.015320 
	C350.104797,390.372070 349.336395,391.149109 342.088104,392.231201 
	C314.184814,396.396942 286.955872,393.632385 260.679474,383.484985 
	C220.905823,368.125305 191.811188,341.267883 174.575684,301.961029 
	C172.093735,296.300720 170.024033,290.507690 168.184250,284.629211 
	C167.267914,281.701263 165.739960,280.223541 162.473770,280.264343 
	C151.310883,280.403687 140.145111,280.393219 128.981216,280.320251 
	C125.565002,280.297943 124.387276,281.349121 124.699135,285.062134 
	C126.067413,301.352783 125.072929,317.692780 125.291382,334.011292 
	C125.329735,336.876007 123.996513,338.338837 121.060501,338.314056 
	C116.895088,338.278900 112.726448,338.214935 108.564339,338.337769 
	C105.606331,338.425018 104.248871,336.953247 104.030426,334.231445 
	C103.870796,332.242493 103.867439,330.237732 103.865227,328.239929 
	C103.765747,238.424683 103.684402,148.609436 103.561012,58.794235 
	C103.551636,51.967461 103.340485,45.137280 103.052361,38.315895 
	C102.869011,33.975246 104.699165,32.514606 109.012711,32.619602 
	C120.170120,32.891171 131.336945,32.776093 143.000000,32.815407 
M128.121872,260.615784 
	C138.283493,260.625549 148.445099,260.644714 158.606720,260.637451 
	C160.707413,260.635956 162.815384,260.615662 162.202560,257.439728 
	C159.443314,243.140076 160.817749,228.961121 163.515839,214.826126 
	C164.168396,211.407364 162.951416,209.961090 159.291000,210.046539 
	C149.465897,210.275879 139.633575,210.329651 129.805923,210.244202 
	C126.393692,210.214539 125.086494,211.342041 125.133728,214.872131 
	C125.316536,228.533981 125.266899,242.199005 125.295685,255.862839 
	C125.299530,257.688416 124.977463,259.632721 128.121872,260.615784 
z"/>
<path fill="#000000" opacity="1.000000" stroke="none" 
	d="
M67.909103,263.714142 
	C67.160683,270.999390 67.139816,277.816681 67.764778,284.639435 
	C68.329903,290.808960 67.458252,296.954285 67.424919,303.108154 
	C67.305748,325.103516 67.339203,347.099884 67.367310,369.095795 
	C67.375092,375.185364 67.872032,375.636383 73.964439,375.639008 
	C107.958290,375.653687 141.952347,375.710022 175.945862,375.603851 
	C184.766037,375.576294 193.589706,375.117157 202.401672,374.661011 
	C206.963913,374.424866 208.788132,376.232971 208.418243,380.807648 
	C208.137146,384.284271 208.256958,387.805878 208.393875,391.299835 
	C208.508942,394.236267 207.065048,395.611359 204.360016,395.915955 
	C202.709259,396.101868 201.040497,396.212097 199.379761,396.212982 
	C150.888916,396.238373 102.398079,396.252075 53.907238,396.249115 
	C46.748165,396.248657 46.742538,396.205750 46.740318,388.929016 
	C46.714031,302.777954 46.702133,216.626892 46.638760,130.475861 
	C46.634109,124.151886 46.262905,117.828117 46.058697,111.504372 
	C45.929119,107.491661 47.343609,105.247887 51.883987,105.613060 
	C55.691956,105.919327 59.548187,105.784554 63.375584,105.643028 
	C66.831238,105.515244 68.247665,107.204033 68.244888,110.437309 
	C68.226448,131.928314 68.684013,153.426071 67.691666,174.904205 
	C67.476570,179.559692 67.505058,184.259857 67.664970,188.840729 
	C68.362404,208.818817 66.822075,228.787720 67.788956,248.754333 
	C68.022385,253.574677 67.891060,258.412659 67.909103,263.714142 
z"/>
<path fill="#000000" opacity="1.000000" stroke="none" 
	d="
M228.553375,205.738968 
	C240.925980,177.195297 261.481659,158.406647 291.395203,150.583481 
	C309.525238,145.841995 327.691406,147.291061 345.713989,151.712173 
	C347.197174,152.076004 348.734283,152.574524 349.183105,154.210739 
	C350.762360,159.968109 350.400269,165.795105 349.137756,171.516907 
	C348.578430,174.051636 346.260498,173.232346 344.538147,172.749847 
	C337.305542,170.723740 329.948425,169.547195 322.486206,168.632645 
	C290.568390,164.720840 256.880707,185.223984 247.089111,215.880325 
	C232.446045,261.726105 257.214325,303.039825 299.483337,313.054504 
	C314.008789,316.495941 328.238037,313.934570 342.374451,310.618225 
	C349.658142,308.909485 350.113434,309.108826 350.170227,316.567444 
	C350.282440,331.313538 349.887421,331.275543 334.692566,333.547150 
	C320.159393,335.719849 305.726593,335.975037 291.651520,331.944977 
	C257.009949,322.026276 234.580917,299.439331 224.788727,264.764008 
	C219.182617,244.912140 220.946030,225.266846 228.553375,205.738968 
z"/>
</svg>